<?xml version="1.0" encoding="UTF-8"?>
<!DOCTYPE svg PUBLIC "-//W3C//DTD SVG 1.1//EN" "http://www.w3.org/Graphics/SVG/1.1/DTD/svg11.dtd">
<!-- Creator: CorelDRAW 2018 (64-Bit) -->
<svg xmlns="http://www.w3.org/2000/svg" xml:space="preserve" width="960px" height="960px" version="1.1" style="shape-rendering:geometricPrecision; text-rendering:geometricPrecision; image-rendering:optimizeQuality; fill-rule:evenodd; clip-rule:evenodd"
viewBox="0 0 960 960"
 xmlns:xlink="http://www.w3.org/1999/xlink">
 <defs>
  <style type="text/css">
   <![CDATA[
    .str0 {stroke:#FEFEFE;stroke-width:4;stroke-miterlimit:2.61313}
    .fil23 {fill:none;fill-rule:nonzero}
    .fil1 {fill:#2DAAE1}
    .fil5 {fill:#32AADC}
    .fil12 {fill:#37A7D7}
    .fil20 {fill:#47A5C7}
    .fil18 {fill:#55B0D4}
    .fil19 {fill:#57A8C8}
    .fil0 {fill:#95B73E}
    .fil9 {fill:#96B942}
    .fil16 {fill:#97B63E}
    .fil7 {fill:#9ABA43}
    .fil13 {fill:#C72676}
    .fil14 {fill:#CA1876}
    .fil21 {fill:#D13386}
    .fil22 {fill:#D29E60}
    .fil6 {fill:#D71777}
    .fil15 {fill:#D89547}
    .fil8 {fill:#D91881}
    .fil3 {fill:#DA147C}
    .fil4 {fill:#E48C2B}
    .fil11 {fill:#E58B33}
    .fil17 {fill:#E9F6C8}
    .fil2 {fill:#EA8A23}
    .fil10 {fill:#F4FDDB}
    .fil24 {fill:#2DAAE1;fill-rule:nonzero}
   ]]>
  </style>
 </defs>
 <g id="Layer_x0020_1">
  <metadata id="CorelCorpID_0Corel-Layer"/>
  <g id="_2688899264224">
   <g>
    <path class="fil0" d="M438.689 311.374c-0.446,8.759 -3.044,17.068 -3.715,30.603 -0.563,11.371 -0.911,21.515 -0.438,33.318 0.815,20.279 4.656,40.785 10.269,58.244 9.356,29.11 10.747,17.375 16.626,51.946 1.665,9.787 8.619,56.271 -1.299,60.926 -6.27,4 -28.328,-10.296 -32.913,-12.787l-29.832 -17.042c-7.751,-4.428 -41.981,-15.495 -52.425,-11.471 28.515,13.452 58.444,29.533 80.004,52.924 17.689,19.192 28.58,41.039 36.659,68.812 11.319,38.914 17.547,97.229 -3.027,135.622 -9.525,17.774 -11.318,14.073 -37.922,15.304 -104.627,5.629 -328.341,49.569 -414.488,141.282 260.28,-130.257 660.759,-149.729 942.247,-30.254 -121.653,-92.701 -251.062,-97.303 -386.252,-112.277 -10.556,-53.195 -12.718,-46.126 -5.566,-101.762 3.808,-23.107 10.733,-45.968 22.114,-64.523 5.901,-9.62 11.458,-17.019 19.19,-24.308 12.394,-11.686 22.57,-14.843 26.039,-17.987 -3.242,-2.2 -9.585,-1.387 -13.347,-0.857 -21.84,3.085 -32.107,14.744 -44.563,26.792 -5.066,4.899 -12.688,7.913 -21.146,3.478 -25.107,-13.162 -26.009,-59.503 -12.351,-86.13 20.163,-39.308 75.777,-105.454 74.108,-154.397 -1.511,1.013 -18.304,26.445 -21.949,31.571 -7.845,11.03 -14.417,20.271 -23.48,31.106 -8.763,10.475 -41.995,52.115 -63.588,41.892 -19.389,-9.18 -32.2,-45.57 -39.072,-70.191 -3.936,-14.102 -7.812,-31.107 -9.475,-45.598 -1.333,-11.614 -8.091,-38.85 -6.035,-47.655 -1.899,1.587 -3.351,10.41 -4.373,13.419z"/>
    <path class="fil1" d="M291.547 379.919l0.547 14.477c-3.973,2.7 -6.826,0.936 -11.576,5.661 -5.608,5.577 -0.639,9.379 -3.441,15.037 -4.593,2.727 -8.239,-1.476 -12.24,1.669 -3.873,3.045 -1.404,7.698 -2.208,12.74 -7.804,6.143 -12.158,-1.044 -12.597,10.02 32.941,14.014 34.788,34.417 52.43,29.63 24.57,-6.667 22.038,-10.692 28.168,-27.233 2.556,-6.897 7.363,-13.326 4.867,-21.38 -3.418,-11.022 0.448,-13.465 4.394,-21.344 3.035,-6.059 6.648,-14.145 0.169,-19.946 -14.013,1.8 -13.445,22.191 -13.762,29.605 -4.831,2.742 -7.803,6.208 -13.538,0.219 -14.017,-14.641 -10.584,-4.375 -10.71,-28.227 -0.028,-5.349 0.016,-22.787 -6.449,-24.98 -4.207,5.558 -4.054,15.98 -4.054,24.052zm-16.351 18.616c-1.195,-6.558 -15.069,-44.382 -22.902,-36.146 -7.011,7.37 19.804,34.222 22.902,36.146zm-16.942 16.17c-2.083,-8.008 -23.824,-34.208 -30.037,-28.037 -3.749,3.723 7.279,13.018 10.908,16.394 4.537,4.221 11.596,10.529 19.129,11.643zm-33.585 12.452c1.509,5.574 14.744,8.408 21.074,6.642 0.162,-3.834 0.042,-3.729 -2.573,-5.119 -3.13,-1.665 -16.029,-5.239 -18.501,-1.523z"/>
    <path class="fil1" d="M295.452 178.501l0.202 5.361c-1.471,0.999 -2.527,0.347 -4.286,2.096 -2.077,2.065 -0.237,3.473 -1.274,5.568 -1.701,1.009 -3.051,-0.547 -4.533,0.618 -1.434,1.127 -0.519,2.85 -0.817,4.717 -2.89,2.274 -4.502,-0.387 -4.664,3.71 12.197,5.189 12.881,12.744 19.413,10.971 9.098,-2.468 8.16,-3.959 10.43,-10.083 0.946,-2.554 2.726,-4.935 1.802,-7.917 -1.266,-4.081 0.166,-4.986 1.627,-7.903 1.124,-2.243 2.462,-5.238 0.063,-7.386 -5.189,0.667 -4.978,8.217 -5.096,10.962 -1.789,1.016 -2.889,2.299 -5.013,0.082 -5.19,-5.421 -3.919,-1.62 -3.965,-10.452 -0.011,-1.981 0.005,-8.438 -2.388,-9.249 -1.558,2.057 -1.501,5.917 -1.501,8.905zm-6.055 6.894c-0.442,-2.429 -5.579,-16.434 -8.48,-13.385 -2.596,2.729 7.333,12.672 8.48,13.385zm-6.273 5.987c-0.771,-2.965 -8.821,-12.667 -11.122,-10.382 -1.388,1.379 2.695,4.82 4.039,6.07 1.68,1.564 4.294,3.899 7.083,4.312zm-12.436 4.61c0.559,2.064 5.46,3.114 7.803,2.46 0.06,-1.42 0.016,-1.381 -0.952,-1.896 -1.159,-0.616 -5.935,-1.94 -6.851,-0.564z"/>
    <path class="fil1" d="M495.991 65.583l0.203 5.361c-1.472,0.999 -2.528,0.347 -4.287,2.096 -2.076,2.065 -0.236,3.473 -1.274,5.568 -1.701,1.009 -3.051,-0.547 -4.532,0.618 -1.434,1.127 -0.52,2.85 -0.818,4.717 -2.889,2.274 -4.501,-0.387 -4.664,3.71 12.197,5.189 12.881,12.744 19.413,10.972 9.098,-2.469 8.161,-3.96 10.43,-10.084 0.947,-2.554 2.727,-4.935 1.802,-7.916 -1.265,-4.082 0.166,-4.986 1.627,-7.904 1.124,-2.243 2.462,-5.238 0.063,-7.385 -5.189,0.666 -4.978,8.216 -5.095,10.961 -1.79,1.016 -2.89,2.299 -5.013,0.082 -5.19,-5.421 -3.919,-1.62 -3.966,-10.452 -0.01,-1.981 0.006,-8.438 -2.388,-9.249 -1.558,2.057 -1.501,5.917 -1.501,8.905zm-6.055 6.894c-0.442,-2.429 -5.579,-16.434 -8.479,-13.384 -2.596,2.728 7.332,12.671 8.479,13.384zm-6.273 5.987c-0.771,-2.965 -8.821,-12.667 -11.122,-10.381 -1.387,1.378 2.696,4.82 4.04,6.069 1.679,1.564 4.293,3.899 7.082,4.312zm-12.435 4.61c0.559,2.064 5.459,3.114 7.803,2.46 0.06,-1.42 0.015,-1.381 -0.953,-1.896 -1.159,-0.616 -5.935,-1.94 -6.85,-0.564z"/>
    <path class="fil1" d="M691.759 171.944l0.525 5.338c-1.408,1.086 -2.502,0.498 -4.153,2.351 -1.948,2.186 -0.026,3.48 -0.935,5.634 -1.637,1.111 -3.078,-0.362 -4.487,0.89 -1.364,1.212 -0.347,2.877 -0.532,4.758 -2.747,2.445 -4.517,-0.115 -4.432,3.985 12.488,4.444 13.626,11.944 20.04,9.781 8.932,-3.013 7.906,-4.444 9.802,-10.694 0.791,-2.606 2.424,-5.09 1.322,-8.011 -1.509,-3.998 -0.135,-4.987 1.147,-7.987 0.987,-2.307 2.142,-5.376 -0.382,-7.376 -5.139,0.978 -4.474,8.502 -4.425,11.249 -1.725,1.122 -2.746,2.469 -4.999,0.383 -5.508,-5.098 -4.01,-1.381 -4.589,-10.193 -0.13,-1.977 -0.503,-8.423 -2.941,-9.089 -1.431,2.148 -1.142,5.997 -0.961,8.981zm-5.628 7.245c-0.588,-2.397 -6.561,-16.068 -9.272,-12.848 -2.426,2.88 8.084,12.206 9.272,12.848zm-5.901 6.354c-0.949,-2.913 -9.569,-12.111 -11.728,-9.691 -1.302,1.459 2.981,4.648 4.398,5.815 1.771,1.459 4.521,3.633 7.33,3.876zm-12.135 5.353c0.682,2.026 5.637,2.778 7.937,1.984 -0.026,-1.421 -0.068,-1.379 -1.065,-1.835 -1.194,-0.545 -6.041,-1.578 -6.872,-0.149z"/>
    <path class="fil2" d="M368.588 239.133c-4.7,1.993 -7.583,0.791 -11.326,5.195 -4.906,5.769 -0.546,9.471 -3.308,14.482 -5.24,4.628 -5.294,-3.209 -14.103,4.055 -0.413,5.205 1.529,10.542 -3.002,12.786 -5.447,2.695 -9.448,-1.636 -9.837,7.015 1.945,2.1 13.626,7.457 17.232,9.76 12.194,7.788 19.814,24.356 34.657,20.9 5.336,-1.242 15.681,-4.26 19.823,-8.131 5.173,-4.837 6.291,-11.28 8.657,-18.129 2.173,-6.285 7.607,-14.116 5.414,-21.43 -3.525,-11.756 -0.582,-13.298 3.644,-21.492 11.227,-21.768 -2.848,-27.059 -10.408,-11.293 -2.935,6.119 -2.322,11.668 -2.47,19.25 -4.866,4.504 -7.749,6.717 -13.582,1.043 -3.949,-3.843 -10.524,-9.245 -11.026,-12.2 -2.016,-11.87 3.571,-33.693 -5.549,-40.836 -7.348,3.608 -3.769,30.272 -4.816,39.025z"/>
    <path class="fil3" d="M247.664 272.477c-0.186,0.165 -0.506,0.121 -0.608,0.428 -0.301,0.899 -4.129,1.204 -5.897,3.45 -1.776,2.256 -1.21,5.352 -1.749,8.474l-7.883 0.932 -0.746 8.013c-0.809,0.235 -3.395,0.735 -3.693,0.851 -4.058,1.565 -1.722,-0.543 -3.209,2.86 1.362,2.63 0.868,1.888 4.44,3.413 8.556,3.649 6.892,3.653 13.587,10.463 5.244,5.335 15.048,6.104 22.29,0.136 3.566,-2.939 9.06,-18.994 8.697,-21.991 -0.748,-6.16 -2.334,-5.285 1.124,-11.747 2.535,-4.738 4.006,-7.838 2.179,-12.771 -8.631,-0.266 -8.12,8.476 -8.95,16.203 -3.579,2.348 -3.951,3.347 -7.46,0.315 -1.643,-1.421 -4.543,-4.273 -6.36,-6.25 -0.121,-7.607 1.556,-19.263 -3.209,-23.936 -4.148,3.796 -2.522,14.685 -2.553,21.157z"/>
    <path class="fil4" d="M359.566 373.422c-2.189,7.371 1.753,7.93 3.294,13.396 2.008,7.121 -2.317,5.961 1.833,15.589 1.604,3.717 4.461,20.134 22.237,14.121 1.066,-3.288 0.379,-2.897 -0.723,-6.057 6.069,1.704 4.212,4.03 10.083,-1.181 3.337,-2.961 13.031,-8.731 5.244,-15.869 -3.724,-3.414 -3.977,-1.547 -7.786,-3.313 -2.527,-3.152 -0.951,-3.672 -2.818,-6.423 -1.835,-2.702 -3.38,-2.011 -5.999,-3.224 -0.395,-6.45 1.138,-14.602 -2.264,-19.117 -0.165,0.154 -0.399,0.187 -0.457,0.5l-0.826 1.099c-4.505,8.383 2.339,16.02 -5.154,23.494 -3.293,3.286 -8.258,5.198 -9.058,-3.714 -0.509,-5.689 -1.861,-9.695 -7.606,-9.301z"/>
    <path class="fil5" d="M265.906 526.179c1.844,7.692 7.685,4.425 11.549,8.763 -0.108,3.687 -4.679,6.957 -8.576,6.889 -4.585,-0.079 -8.976,-2.989 -14.603,-0.749 0.57,1.914 0.973,2.253 5.473,3.315 3.027,0.715 5.691,1.12 8.949,1.567l1.378 5.753 5.421 1.093 0.399 5.888c7.403,2.905 3.371,-0.873 5.728,6.445 3.508,-0.864 3.503,-2.486 5.907,-5.281 4.095,-4.762 16.349,-9.584 9.285,-20.913 -1.653,-2.65 -10.432,-7.735 -14.192,-8.185 -5.898,-0.705 -3.973,0.548 -8.118,-2.821 -1.773,-1.441 -6.129,-4.251 -8.6,-1.764z"/>
    <path class="fil6" d="M459.775 265.068c-4.713,2.971 -3.614,-0.083 -5.192,5.542 -1.497,5.342 0.547,2.242 -6.011,3.865l-0.362 5.132c-4.215,1.668 -3.149,-0.141 -4.624,3.059 2.285,2.12 4.054,2.482 6.389,3.987 2.857,1.842 3.562,3.141 5.98,5.158 11.245,9.38 21.409,-3.468 21.45,-14.687 0.022,-5.936 -1.483,-3.846 1.437,-9.507 1.807,-3.504 2.118,-4.267 1.035,-8.14 -7.062,0.946 -4.234,7.329 -7.176,12.074 -4.054,1.842 -8.114,-2.833 -8.628,-6.475 -0.37,-2.616 0.466,-8.999 -0.743,-12.103 -0.937,-2.405 -0.314,-1.428 -1.933,-2.569 -2.288,3.979 -1.447,9.718 -1.622,14.664z"/>
    <path class="fil5" d="M797.33 365.1c-7.037,4.493 -3.561,0.057 -5.845,8.666 -9.997,1.235 -1.45,0.667 -7.646,6.442 -1.077,1.004 -1.108,-0.706 -2.682,2.49 2.727,2.816 4.759,1.84 12.054,9.073 4.391,4.354 10.778,4.217 15.796,0.522 2.157,-1.588 6.03,-12.309 5.943,-14.949 -0.167,-4.964 -1.376,-4.354 0.955,-8.885 1.788,-3.479 2.512,-3.489 1.581,-8.486 -9.307,-0.705 -2.919,18.209 -12.385,10.694 -1.586,-1.26 -3.207,-2.524 -3.575,-5.581 -0.282,-2.324 0.095,-5.796 -0.073,-8.394 -0.507,-7.876 -2.114,-5.848 -2.911,-6.054 -1.795,4.404 -1.096,9.749 -1.212,14.462z"/>
    <path class="fil7" d="M235.814 208.059c-18.904,-0.337 -11.504,12.352 -8.094,15.613 5.136,4.91 18.052,6.695 24.944,6.801 0.58,-6.722 1.854,-23.153 -1.022,-27.899 -2.246,-3.705 -5.959,-5.041 -9.799,-3.354 -3.807,1.671 -5.294,4.679 -6.029,8.839z"/>
    <path class="fil8" d="M404.897 337.191c-4.486,-0.537 -9.364,-1.752 -11.512,2.536 -3.477,6.939 3.032,15.555 12.773,17.587 3.936,0.821 11.379,2.656 14.599,2.646 0.169,-9.369 6.759,-36.384 -9.042,-31.712 -4.509,1.334 -4.767,4.798 -6.818,8.943z"/>
    <path class="fil4" d="M474.364 134.682c-4.955,0.012 -9.433,-0.796 -10.983,3.738 -3.022,8.845 4.844,15.197 14.437,16.848 4.415,0.76 9.631,2.249 13.187,2.541 0.724,-11.233 6.037,-35.782 -9.055,-31.753 -4.653,1.241 -5.464,5.961 -7.586,8.626z"/>
    <path class="fil3" d="M352.078 454.944c-0.867,3.824 -3.333,8.921 1.113,11.922 6.317,4.261 15.821,-0.405 19.616,-11.661 1.229,-3.643 3.777,-8.846 4.417,-12.321 -9.292,-1.791 -21.525,-6.115 -25.757,-5.303 -4.374,0.842 -7.624,3.795 -6.986,8.918 0.642,5.168 4.585,6.499 7.597,8.445z"/>
    <path class="fil4" d="M802.533 205.789c2.431,3.698 5.125,5.251 7.833,8.516 2.001,2.411 4.84,7 7.573,9.13 3.184,2.48 9.994,3.601 12.99,-0.058 3.767,-4.599 0.663,-8.895 -0.663,-12.956 2.685,-2.78 6.992,-4.87 5.864,-9.824 -1.419,-6.234 -12.032,-10.677 -23.239,-1.797 -3.58,2.837 -7.05,4.808 -10.358,6.989z"/>
    <path class="fil3" d="M561.429 375.111c4.743,-1.237 6.476,-3.53 11.115,-5.397 4.3,-1.731 7.927,-2.218 11.22,-5.454 7.933,-7.799 1.93,-16.569 -10.295,-13.962 -2.378,-3.541 -2.169,-8.035 -7.455,-8.455 -8.364,-0.664 -13.104,10.188 -8.93,21.023 1.227,3.187 3.082,10.103 4.345,12.245z"/>
    <path class="fil3" d="M709.797 152.875c4.743,-1.237 6.476,-3.53 11.115,-5.397 4.3,-1.731 7.926,-2.218 11.219,-5.454 7.934,-7.798 1.931,-16.569 -10.294,-13.962 -2.378,-3.541 -2.169,-8.035 -7.455,-8.455 -8.365,-0.664 -13.104,10.188 -8.931,21.024 1.228,3.186 3.082,10.103 4.346,12.244z"/>
    <path class="fil5" d="M589.167 468.21c5.823,-0.328 23.733,-1.911 26.839,-4.058 8.384,-5.8 3.409,-14.72 -7.404,-15.542 0.19,-13.58 -8.747,-14.21 -14.996,-6.917 -5.776,6.743 -4.013,16.078 -4.439,26.517z"/>
    <path class="fil9" d="M576.248 295.637c0.78,-0.473 13.844,-17.379 14.415,-19.029 4.6,-13.269 -9.313,-15.67 -15.407,-7.982 -2.662,-2.326 -6.372,-6.456 -10.824,-4.27 -3.746,1.84 -5.662,6.577 -4.478,12.465 1.018,5.054 4.439,8.067 7.067,10.43 1.606,1.441 7.491,7.509 9.227,8.386z"/>
    <path class="fil5" d="M805.759 422.526l15.973 17.606c3.759,2.333 9.141,2.79 12.108,-0.825 4.173,-5.084 0.127,-9.735 -0.82,-13.076 2.802,-2.388 7.143,-4.533 5.722,-9.606 -1.935,-6.904 -12.616,-9.786 -22.908,-1.819 -2.635,2.041 -8.656,5.673 -10.075,7.72z"/>
    <path class="fil5" d="M416.938 196.675c-3.639,-1.622 -8.112,-4.41 -11.659,-0.745 -9.863,10.197 10.203,24.583 19.068,27.44 0.78,-1.001 9.871,-21.298 9.99,-22.392 0.533,-4.933 -1.539,-9.535 -6.375,-10.038 -6.153,-0.64 -7.692,2.933 -11.024,5.735z"/>
    <path class="fil4" d="M655.904 120.344l18.181 -14.911c2.414,-3.341 2.968,-9.183 -0.25,-12.017 -4.71,-4.151 -9.316,-0.53 -13.3,0.135 -2.077,-3.017 -4.269,-7.165 -9.752,-5.942 -6.635,1.479 -9.833,12.163 -2.351,22.868l7.472 9.867z"/>
    <path class="fil4" d="M335.97 259.067c-1.285,-7.003 -24.39,-34.201 -30.473,-28.453 -4.527,4.278 9.406,15.511 11.648,17.539 4.177,3.78 12.942,10.916 18.825,10.914z"/>
    <path class="fil4" d="M351.936 242.717c-0.239,-7.317 -14.512,-43.464 -22.27,-36.282 -7.35,6.801 17.746,32.599 22.27,36.282z"/>
    <g>
     <path class="fil0" d="M491.841 408.566c-5.429,-9.962 -0.267,-29.652 13.35,-35.878 6.147,-2.81 5.012,-0.325 5.215,-0.178 -13.789,7.695 -16.563,18.128 -18.565,36.056zm18.2 -43.286c-40.931,12.723 -26.811,78.308 11.335,68.003 14.171,-3.828 25.256,-21.505 23.053,-40.033 -1.846,-15.524 -15.797,-33.749 -34.388,-27.97z"/>
     <path class="fil10" d="M491.841 408.566c2.002,-17.928 4.776,-28.361 18.565,-36.056 -0.203,-0.147 0.932,-2.632 -5.215,0.178 -13.617,6.226 -18.779,25.916 -13.35,35.878z"/>
    </g>
    <g>
     <path class="fil0" d="M411.952 502.092c-8.284,-6.389 -11.25,-24.925 -2.074,-35.242 4.143,-4.657 4.11,-2.138 4.335,-2.089 -8.775,11.62 -7.237,21.457 -2.261,37.331zm-0.734 -43.297c-29.812,25.955 6.49,76.054 34.849,53.174 10.537,-8.499 13.319,-27.539 4.571,-42.356 -7.33,-12.415 -25.88,-22.607 -39.42,-10.818z"/>
     <path class="fil10" d="M411.952 502.092c-4.976,-15.874 -6.514,-25.711 2.261,-37.331 -0.225,-0.049 -0.192,-2.568 -4.335,2.089 -9.176,10.317 -6.21,28.853 2.074,35.242z"/>
    </g>
    <g>
     <path class="fil0" d="M551.269 539.052c-2.394,-9.379 6.014,-24.575 18.582,-26.86 5.674,-1.032 4.213,0.785 4.35,0.949 -13.019,3.464 -17.507,11.507 -22.932,25.911zm24.15 -31.966c-36.519,1.915 -38.633,59.115 -4.924,58.613 12.522,-0.185 25.405,-12.472 27.478,-28.255 1.739,-13.225 -5.966,-31.228 -22.554,-30.358z"/>
     <path class="fil10" d="M551.269 539.052c5.425,-14.404 9.913,-22.447 22.932,-25.911 -0.137,-0.164 1.324,-1.981 -4.35,-0.949 -12.568,2.285 -20.976,17.481 -18.582,26.86z"/>
    </g>
    <path class="fil11" d="M302.229 270.626c0.06,1.857 -1.432,3.437 7.352,6.405 4.3,1.452 9.683,2.502 13.096,0.077 -0.063,-4.991 -3.068,-4.845 -7.906,-6.233 -3.736,-1.072 -8.91,-2.217 -12.542,-0.249z"/>
    <path class="fil12" d="M564.873 221.804c5.423,1.309 18.61,-0.581 20.668,-6.752 -3.996,-2.668 -8.086,-1.442 -12.375,-0.368 -4.811,1.206 -10.03,1.778 -8.293,7.12zm-13.284 -19.128c6.582,-0.045 15.238,-7.575 18.851,-11.004 2.174,-2.06 15.923,-13.141 11.406,-17.295 -6.392,-5.875 -28.168,21.476 -30.257,28.299zm-16.214 -17.045c5.585,-2.376 11.506,-10.886 14.708,-15.237 1.933,-2.627 12.906,-15.225 7.612,-20.23 -7.594,-7.18 -21.052,28.47 -22.32,35.467zm-33.424 7.191c1.045,4.438 3.859,6.219 5.496,9.959l-8.837 -5.812c-5.381,2.415 -5.108,6.685 -14.621,-0.621 -0.263,-7.405 0.158,-12.6 -2.507,-18.99 -2.013,-4.823 -6.253,-9.631 -11.654,-10.277 -8.168,11.343 2.342,20.14 5.436,29.434 2.985,8.967 -1.303,10.412 -1.459,16.71 -0.115,4.61 3.611,10.65 5.236,14.718 4.731,11.835 3.791,20.057 15.826,24.939 17.738,7.197 19.796,5.447 30.651,-0.461 -1.815,-5.77 -5.569,-7.99 -7.738,-13.412 12.473,5.935 7.937,16.921 33.93,-7.746 5.798,-5.502 9.66,-9.493 3.893,-18.71 -6.363,-10.165 -16.839,-8.66 -19.377,-10.185 -7.879,-5.443 2.927,-14.915 -17.686,-19.417 -0.146,-10.294 2.413,-34.338 -4.349,-39.224 -8.434,4.919 -4.996,32.058 -5.549,39.894 -0.315,4.445 -4.294,6.329 -6.691,9.201z"/>
    <path class="fil6" d="M702.231 291.002c4.918,3.467 20.209,-0.461 21.014,-6.254 -4.445,-2.215 -14.338,-0.099 -18.02,1.709 -2.892,1.42 -2.899,1.434 -2.994,4.545zm-12.643 -18.139c10.899,-1.454 34.884,-23.57 30.288,-28.193 -5.928,-5.962 -27.66,18.757 -30.288,28.193zm-16.748 -16.323c4.355,-2.251 29.422,-29.381 22.935,-36.096 -7.805,-8.08 -21.889,29.014 -22.935,36.096zm-33.131 6.675c1.501,4.567 3.437,5.265 5.174,9.186l-8.41 -5.35c-5.751,1.872 -7.158,7.288 -14.716,-1.057 -0.214,-7.037 0.247,-12.944 -2.543,-18.921 -2.016,-4.319 -6.795,-10.82 -11.738,-9.263 -8.975,7.295 4.354,23.684 5.904,29.874 2.137,8.541 -2.208,10.262 -1.728,16.694 0.285,3.802 4.056,10.928 5.527,14.762 4.624,12.062 4.402,19.669 16.59,24.194 9.694,3.599 22.279,7.985 29.459,-1.767l-7.741 -12.021c13.854,5.586 8.271,16.192 31.919,-6.481 5.369,-5.149 13.639,-10.184 5.413,-21.196 -1.923,-2.575 -5.146,-5.587 -8.555,-7.213 -5.44,-2.597 -9.709,0.667 -12.353,-4.194 -4.627,-8.509 3.616,-12.332 -15.805,-17.596 0.239,-9.653 2.816,-33.192 -3.907,-39.127 -9.254,5.005 -5.023,32.107 -5.739,40.22 -0.471,5.35 -3.876,4.079 -6.751,9.256z"/>
    <path class="fil6" d="M616.368 111.781c2.619,1.098 9.264,-2.268 9.046,-5.018 -2.273,-0.569 -6.616,1.412 -8.129,2.62 -1.187,0.949 -1.19,0.956 -0.917,2.398zm-7.67 -7.07c4.874,-1.779 13.674,-14.408 11.086,-16.071 -3.338,-2.144 -10.835,11.456 -11.086,16.071zm-9.377 -5.816c1.777,-1.481 10.566,-16.531 6.894,-18.964 -4.418,-2.929 -7.133,15.594 -6.894,18.964zm-14.585 6.445c1.156,1.952 2.119,2.076 3.318,3.706l-4.419 -1.609c-2.459,1.448 -2.556,4.086 -6.887,1.01 -0.815,-3.22 -1.203,-5.989 -3.097,-8.458 -1.369,-1.785 -4.232,-4.294 -6.35,-3.074 -3.394,4.274 4.415,10.469 5.759,13.163 1.853,3.718 0.027,4.953 0.902,7.867 0.518,1.723 2.981,4.623 4.048,6.239 3.358,5.087 4.03,8.615 10.105,9.459 4.833,0.672 11.077,1.412 13.393,-3.811l-4.789 -4.751c6.951,1.164 5.458,6.619 14.046,-6.233 1.95,-2.919 5.248,-6.08 0.338,-10.317 -1.148,-0.99 -2.94,-2.05 -4.676,-2.453 -2.77,-0.642 -4.405,1.296 -6.117,-0.675 -2.998,-3.449 0.41,-6.049 -9.073,-6.499 -0.872,-4.471 -2.079,-15.579 -5.781,-17.629 -3.754,3.247 0.952,15.304 1.448,19.114 0.328,2.513 -1.371,2.274 -2.168,4.951z"/>
    <path class="fil6" d="M438.06 146.312c3.506,1.469 12.404,-3.037 12.111,-6.72 -3.044,-0.761 -8.859,1.892 -10.884,3.509 -1.59,1.27 -1.593,1.279 -1.227,3.211zm-10.27 -9.467c6.525,-2.382 18.308,-19.292 14.843,-21.518 -4.469,-2.871 -14.508,15.339 -14.843,21.518zm-12.556 -7.788c2.38,-1.982 14.148,-22.133 9.231,-25.391 -5.916,-3.922 -9.55,20.88 -9.231,25.391zm-19.528 8.631c1.547,2.613 2.837,2.78 4.443,4.962l-5.917 -2.155c-3.293,1.938 -3.423,5.471 -9.222,1.353 -1.091,-4.312 -1.611,-8.019 -4.147,-11.326 -1.832,-2.39 -5.666,-5.749 -8.502,-4.115 -4.543,5.723 5.912,14.017 7.711,17.624 2.482,4.978 0.036,6.632 1.208,10.534 0.694,2.307 3.991,6.189 5.42,8.353 4.496,6.812 5.396,11.535 13.53,12.666 6.471,0.899 14.832,1.891 17.933,-5.103l-6.413 -6.362c9.308,1.559 7.308,8.862 18.807,-8.346 2.611,-3.907 7.026,-8.14 0.452,-13.812 -1.537,-1.327 -3.935,-2.746 -6.26,-3.285 -3.71,-0.861 -5.898,1.734 -8.191,-0.904 -4.014,-4.619 0.55,-8.1 -12.148,-8.702 -1.167,-5.987 -2.784,-20.859 -7.74,-23.605 -5.026,4.348 1.275,20.491 1.939,25.593 0.438,3.365 -1.835,3.045 -2.903,6.63z"/>
    <path class="fil12" d="M737.131 435.576c-4.928,-1.942 -24.694,0.69 -20.578,6.651 1.67,2.42 9.382,0.673 11.797,-0.086 3.4,-1.07 8.348,-2.93 8.781,-6.565zm-33.719 -11.586c7.158,-1.27 13.936,-7.076 18.604,-11.289 3.603,-3.252 15.555,-13.185 11.721,-17.048 -6.444,-6.494 -29.708,22.167 -30.325,28.337zm-16.194 -17.136c4.902,-2.451 11.07,-10.474 14.604,-15.309 1.86,-2.544 12.826,-15.647 7.553,-20.683 -7.209,-6.884 -21.421,28.579 -22.157,35.992zm-33.583 7.336c1.296,3.99 2.329,3.339 3.567,7.774l-6.88 -3.886c-6.573,1.736 -6.666,7.344 -14.678,-1.109 -0.02,-0.047 1.446,-28.096 -14.01,-28.634 -9.136,9.265 2.934,21.76 5.298,28.886 2.951,8.9 -1.199,10.327 -1.441,16.512 -0.194,4.944 3.344,10.734 5.107,15.045 4.46,10.894 3.824,19.895 15.873,24.937 9.466,3.96 23.216,8.463 30.726,-1.173l-7.943 -12.024c13.83,5.914 8.221,16.221 33.415,-7.892 3.773,-3.611 7.923,-5.125 7.015,-12.349 -1.965,-15.647 -20.463,-16.025 -21.617,-16.573 -4.216,-2.001 -2.837,-9.335 -5.279,-13.239 -2.771,-4.43 -7.622,-5.067 -12.62,-6.787 0.436,-10.29 2.157,-33.308 -4.076,-38.782 -9.286,4.332 -4.987,31.768 -5.761,40.024 -0.496,5.305 -3.652,3.914 -6.696,9.27z"/>
    <path class="fil13" d="M228.731 284.485c-1.587,-4.536 -9.724,-16.085 -17.658,-16.098 0.606,5.857 11.831,15.717 17.658,16.098z"/>
    <path class="fil14" d="M237.953 275.043c-0.428,-3.816 -5.724,-20.222 -12.417,-20.729 -2.109,4.644 1.102,7.774 3.768,11.336 2.845,3.803 4.905,6.953 8.649,9.393z"/>
    <path class="fil15" d="M401.827 390.379c4.554,-0.788 6.156,-2.793 9.136,-5.338 3.091,-2.639 5.829,-4.45 6.076,-8.904 -5.771,-0.15 -13.835,8.256 -15.212,14.242z"/>
    <path class="fil15" d="M393.715 381.687c2.651,-1.285 11.894,-10.743 11.182,-17.519 -7.657,-0.228 -11.079,14.462 -11.182,17.519z"/>
    <g>
     <path class="fil16" d="M209.43 488.213l1.067 2.778c0.418,1.537 0.219,1.686 0.971,3.641 1.781,4.634 3.891,6.767 7.967,8.607 1.529,0.689 1.992,0.708 3.433,1.207l3.729 1.771c-12.55,1.934 -19.436,-5.446 -17.167,-18.004zm56.66 5.968c-3.497,-4.59 -8.47,-9.237 -10.952,-14.627 -4.408,-9.573 -8.92,-20.029 -16.866,-24.713 -11.572,-6.824 -22.347,0.699 -22.34,13.082 0.004,6.561 2.131,6.482 2.707,11.103 -5.679,2.966 -12.733,4.393 -13.888,12.23 -1.118,7.582 4.439,13.078 9.978,15.845 13.722,6.855 25.75,-0.151 37.635,-6.484 4.68,-2.492 8.587,-4.406 13.726,-6.436z"/>
     <path class="fil17" d="M219.435 503.239c-4.076,-1.84 -6.186,-3.973 -7.967,-8.607 -0.752,-1.955 -0.553,-2.104 -0.971,-3.641l-1.067 -2.778c-2.269,12.558 4.617,19.938 17.167,18.004l-3.729 -1.771c-1.441,-0.499 -1.904,-0.518 -3.433,-1.207z"/>
    </g>
    <g>
     <path class="fil16" d="M786.149 519.181l-1.462 -2.592c-0.638,-1.459 -0.463,-1.636 -1.492,-3.46 -2.439,-4.323 -4.839,-6.125 -9.14,-7.35 -1.613,-0.458 -2.074,-0.409 -3.573,-0.692l-3.948 -1.207c12.133,-3.748 20.024,2.546 19.615,15.301zm-56.924 2.379c4.13,4.029 9.729,7.9 12.973,12.869 5.759,8.825 11.752,18.509 20.297,21.982 12.445,5.059 22.005,-3.958 20.187,-16.207 -0.962,-6.49 -3.055,-6.101 -4.3,-10.589 5.184,-3.764 11.954,-6.206 11.951,-14.128 -0.002,-7.664 -6.303,-12.289 -12.187,-14.216 -14.576,-4.776 -25.451,3.913 -36.283,11.916 -4.265,3.149 -7.851,5.613 -12.638,8.373z"/>
     <path class="fil17" d="M774.055 505.779c4.301,1.225 6.701,3.027 9.14,7.35 1.029,1.824 0.854,2.001 1.492,3.46l1.462 2.592c0.409,-12.755 -7.482,-19.049 -19.615,-15.301l3.948 1.207c1.499,0.283 1.96,0.234 3.573,0.692z"/>
    </g>
    <g>
     <path class="fil16" d="M779.582 145.778l-2.904 -0.651c-1.511,-0.504 -1.524,-0.752 -3.568,-1.21 -4.845,-1.085 -7.79,-0.511 -11.58,1.862 -1.421,0.891 -1.693,1.267 -2.907,2.19l-3.541 2.122c5.345,-11.518 15.304,-13.161 24.5,-4.313zm-36.366 43.857c5.759,-0.367 12.383,-1.931 18.245,-1.01 10.411,1.635 21.615,3.673 29.918,-0.345 12.093,-5.851 11.802,-18.99 1.49,-25.845 -5.464,-3.634 -6.578,-1.819 -10.743,-3.901 0.678,-6.371 3.4,-13.033 -2.484,-18.337 -5.692,-5.133 -13.347,-3.552 -18.719,-0.475 -13.311,7.623 -14.144,21.518 -15.458,34.921 -0.519,5.276 -1.092,9.589 -2.249,14.992z"/>
     <path class="fil17" d="M761.53 145.779c3.79,-2.373 6.735,-2.947 11.58,-1.862 2.044,0.458 2.057,0.706 3.568,1.21l2.904 0.651c-9.196,-8.848 -19.155,-7.205 -24.5,4.313l3.541 -2.122c1.214,-0.923 1.486,-1.299 2.907,-2.19z"/>
    </g>
    <g>
     <path class="fil16" d="M619.464 146.155l-2.858 0.83c-1.567,0.287 -1.698,0.076 -3.709,0.66 -4.768,1.384 -7.071,3.307 -9.248,7.214 -0.815,1.465 -0.873,1.926 -1.492,3.319l-2.078 3.567c-0.871,-12.668 7.063,-18.909 19.385,-15.59zm-10.718 55.956c4.868,-3.098 9.918,-7.662 15.497,-9.681 9.91,-3.586 20.709,-7.202 26.046,-14.725 7.774,-10.956 1.185,-22.327 -11.154,-23.362 -6.539,-0.549 -6.639,1.577 -11.292,1.762 -2.477,-5.909 -3.305,-13.058 -11.017,-14.869 -7.461,-1.753 -13.406,3.322 -16.629,8.608 -7.987,13.096 -2.018,25.672 3.292,38.047 2.089,4.874 3.666,8.929 5.257,14.22z"/>
     <path class="fil17" d="M603.649 154.859c2.177,-3.907 4.48,-5.83 9.248,-7.214 2.011,-0.584 2.142,-0.373 3.709,-0.66l2.858 -0.83c-12.322,-3.319 -20.256,2.922 -19.385,15.59l2.078 -3.567c0.619,-1.393 0.677,-1.854 1.492,-3.319z"/>
    </g>
    <g>
     <path class="fil16" d="M550.007 35.834l-2.72 1.207c-1.514,0.494 -1.673,0.303 -3.587,1.152 -4.538,2.012 -6.562,4.228 -8.195,8.391 -0.611,1.561 -0.606,2.026 -1.031,3.489l-1.581 3.814c-2.565,-12.436 4.458,-19.686 17.114,-18.053zm-3.103 56.889c4.408,-3.724 8.799,-8.925 14.057,-11.676 9.338,-4.884 19.553,-9.918 23.831,-18.09 6.232,-11.901 -1.825,-22.284 -14.191,-21.652 -6.554,0.334 -6.368,2.456 -10.954,3.263 -3.248,-5.522 -5.029,-12.495 -12.914,-13.253 -7.629,-0.735 -12.838,5.092 -15.322,10.764 -6.155,14.05 1.449,25.709 8.374,37.26 2.724,4.548 4.832,8.354 7.119,13.384z"/>
     <path class="fil17" d="M535.505 46.584c1.633,-4.163 3.657,-6.379 8.195,-8.391 1.914,-0.849 2.073,-0.658 3.587,-1.152l2.72 -1.207c-12.656,-1.633 -19.679,5.617 -17.114,18.053l1.581 -3.814c0.425,-1.463 0.42,-1.928 1.031,-3.489z"/>
    </g>
    <g>
     <path class="fil16" d="M404.985 47.268l-1.642 2.481c-1.009,1.232 -1.246,1.157 -2.402,2.903 -2.74,4.14 -3.253,7.096 -2.386,11.484 0.325,1.644 0.58,2.033 1.009,3.496l0.722 4.065c-8.858,-9.099 -6.844,-18.99 4.699,-24.429zm28.021 49.606c1.71,-5.511 2.608,-12.258 5.557,-17.408 5.238,-9.144 11.134,-18.887 10.338,-28.076 -1.158,-13.385 -13.538,-17.794 -23.618,-10.602 -5.341,3.81 -4.042,5.498 -7.472,8.648 -5.711,-2.904 -10.966,-7.82 -18.019,-4.213 -6.823,3.489 -8.074,11.205 -7.113,17.321 2.38,15.153 15.066,20.883 27.12,26.886 4.746,2.366 8.572,4.438 13.207,7.444z"/>
     <path class="fil17" d="M398.555 64.136c-0.867,-4.388 -0.354,-7.344 2.386,-11.484 1.156,-1.746 1.393,-1.671 2.402,-2.903l1.642 -2.481c-11.543,5.439 -13.557,15.33 -4.699,24.429l-0.722 -4.065c-0.429,-1.463 -0.684,-1.852 -1.009,-3.496z"/>
    </g>
    <g>
     <path class="fil16" d="M310.236 129.946l-0.902 2.835c-0.634,1.461 -0.883,1.453 -1.518,3.449 -1.505,4.731 -1.191,7.715 0.842,11.699 0.762,1.493 1.112,1.797 1.926,3.087l1.805 3.713c-11.007,-6.332 -11.772,-16.397 -2.153,-24.783zm40.505 40.065c0.139,-5.768 -0.84,-12.504 0.591,-18.263 2.541,-10.227 5.552,-21.21 2.276,-29.833 -4.77,-12.559 -17.884,-13.419 -25.616,-3.747 -4.097,5.125 -2.387,6.393 -4.825,10.36 -6.287,-1.233 -12.686,-4.528 -18.485,0.869 -5.611,5.221 -4.707,12.985 -2.112,18.606 6.429,13.927 20.197,15.973 33.434,18.456 5.211,0.979 9.457,1.927 14.737,3.552z"/>
     <path class="fil17" d="M308.658 147.929c-2.033,-3.984 -2.347,-6.968 -0.842,-11.699 0.635,-1.996 0.884,-1.988 1.518,-3.449l0.902 -2.835c-9.619,8.386 -8.854,18.451 2.153,24.783l-1.805 -3.713c-0.814,-1.29 -1.164,-1.594 -1.926,-3.087z"/>
    </g>
    <g>
     <path class="fil16" d="M177.326 356.698l1.533 2.55c0.679,1.441 0.508,1.622 1.588,3.417 2.557,4.255 5.006,5.99 9.339,7.095 1.625,0.414 2.085,0.351 3.591,0.593l3.979 1.097c-12.024,4.082 -20.086,-1.991 -20.03,-14.752zm56.836 -3.952c-4.239,-3.914 -9.943,-7.628 -13.323,-12.506 -6.001,-8.662 -12.259,-18.177 -20.897,-21.412 -12.58,-4.713 -21.887,4.565 -19.731,16.759 1.141,6.461 3.223,6.014 4.591,10.465 -5.078,3.906 -11.778,6.535 -11.556,14.454 0.214,7.661 6.641,12.11 12.575,13.874 14.703,4.371 25.334,-4.616 35.94,-12.914 4.177,-3.267 7.693,-5.829 12.401,-8.72z"/>
     <path class="fil17" d="M189.786 369.76c-4.333,-1.105 -6.782,-2.84 -9.339,-7.095 -1.08,-1.795 -0.909,-1.976 -1.588,-3.417l-1.533 -2.55c-0.056,12.761 8.006,18.834 20.03,14.752l-3.979 -1.097c-1.506,-0.242 -1.966,-0.179 -3.591,-0.593z"/>
    </g>
    <g>
     <path class="fil16" d="M751.18 314.306l-2.617 -1.417c-1.317,-0.896 -1.263,-1.138 -3.105,-2.135 -4.366,-2.363 -7.356,-2.613 -11.649,-1.36 -1.61,0.469 -1.974,0.757 -3.393,1.315l-3.986 1.078c8.279,-9.629 18.309,-8.498 24.75,2.519zm-46.932 32.302c5.641,1.214 12.442,1.512 17.832,3.994 9.572,4.408 19.799,9.418 28.881,7.812 13.229,-2.338 16.526,-15.06 8.47,-24.464 -4.269,-4.983 -5.834,-3.54 -9.276,-6.677 2.387,-5.946 6.819,-11.615 2.602,-18.321 -4.08,-6.488 -11.876,-7.051 -17.883,-5.552 -14.883,3.711 -19.467,16.855 -24.38,29.394 -1.936,4.936 -3.661,8.93 -6.246,13.814z"/>
     <path class="fil17" d="M733.809 309.394c4.293,-1.253 7.283,-1.003 11.649,1.36 1.842,0.997 1.788,1.239 3.105,2.135l2.617 1.417c-6.441,-11.017 -16.471,-12.148 -24.75,-2.519l3.986 -1.078c1.419,-0.558 1.783,-0.846 3.393,-1.315z"/>
    </g>
    <g>
     <path class="fil16" d="M825.67 299.193l-1.399 -0.756c-0.703,-0.479 -0.674,-0.608 -1.658,-1.141 -2.332,-1.262 -3.929,-1.395 -6.222,-0.726 -0.86,0.251 -1.055,0.404 -1.812,0.702l-2.129 0.576c4.422,-5.143 9.779,-4.539 13.22,1.345zm-25.069 17.255c3.013,0.648 6.646,0.807 9.525,2.133 5.113,2.355 10.575,5.031 15.427,4.173 7.066,-1.249 8.827,-8.044 4.524,-13.067 -2.28,-2.662 -3.116,-1.891 -4.955,-3.567 1.275,-3.176 3.643,-6.204 1.39,-9.786 -2.179,-3.466 -6.344,-3.766 -9.552,-2.966 -7.95,1.982 -10.399,9.003 -13.023,15.701 -1.034,2.637 -1.955,4.77 -3.336,7.379z"/>
     <path class="fil17" d="M816.391 296.57c2.293,-0.669 3.89,-0.536 6.222,0.726 0.984,0.533 0.955,0.662 1.658,1.141l1.399 0.756c-3.441,-5.884 -8.798,-6.488 -13.22,-1.345l2.129 -0.576c0.757,-0.298 0.952,-0.451 1.812,-0.702z"/>
    </g>
    <g>
     <path class="fil16" d="M337.06 602.185l2.954 0.357c1.554,0.351 1.592,0.597 3.671,0.848 4.929,0.597 7.802,-0.269 11.337,-3.009 1.324,-1.027 1.558,-1.428 2.673,-2.468l3.312 -2.465c-4.169,11.994 -13.914,14.623 -23.947,6.737zm31.806 -47.268c-5.693,0.94 -12.128,3.157 -18.053,2.826 -10.521,-0.588 -21.874,-1.497 -29.733,3.329 -11.449,7.03 -9.848,20.073 1.096,25.866 5.8,3.069 6.726,1.153 11.079,2.808 -0.039,6.406 -2.082,13.307 4.302,17.998 6.176,4.539 13.634,2.202 18.673,-1.396 12.483,-8.914 11.925,-22.823 11.895,-36.289 -0.01,-5.302 0.129,-9.651 0.741,-15.142z"/>
     <path class="fil17" d="M355.022 600.381c-3.535,2.74 -6.408,3.606 -11.337,3.009 -2.079,-0.251 -2.117,-0.497 -3.671,-0.848l-2.954 -0.357c10.033,7.886 19.778,5.257 23.947,-6.737l-3.312 2.465c-1.115,1.04 -1.349,1.441 -2.673,2.468z"/>
    </g>
    <g>
     <path class="fil16" d="M295.612 325.743l0.005 2.975c-0.158,1.585 -0.397,1.653 -0.394,3.748 0.009,4.964 1.218,7.71 4.368,10.885 1.182,1.19 1.608,1.373 2.776,2.353l2.851 2.986c-12.413,-2.675 -16.21,-12.028 -9.606,-22.947zm50.792 25.81c-1.626,-5.536 -4.612,-11.653 -5.005,-17.574 -0.699,-10.515 -1.179,-21.894 -6.928,-29.107 -8.371,-10.507 -21.123,-7.328 -25.538,4.24 -2.341,6.13 -0.325,6.817 -1.438,11.339 -6.363,0.742 -13.462,-0.445 -17.34,6.462 -3.752,6.683 -0.524,13.802 3.661,18.364 10.368,11.304 24.106,9.056 37.468,7.385 5.262,-0.656 9.595,-1.048 15.12,-1.109z"/>
     <path class="fil17" d="M299.591 343.351c-3.15,-3.175 -4.359,-5.921 -4.368,-10.885 -0.003,-2.095 0.236,-2.163 0.394,-3.748l-0.005 -2.975c-6.604,10.919 -2.807,20.272 9.606,22.947l-2.851 -2.986c-1.168,-0.98 -1.594,-1.163 -2.776,-2.353z"/>
    </g>
    <path class="fil11" d="M705.517 572.575c3.779,2.353 9.538,0.634 12.111,-1.243 3.208,-2.34 1.568,-0.602 2.293,-3.452 -5.164,-0.653 -13.152,-0.785 -14.404,4.695zm-9.091 -12.838c4.806,-0.834 21.082,-12.395 21.442,-17.771 0.251,-3.759 0.035,-1.005 -0.449,-2.212 -6.931,-2.552 -20.115,14.451 -20.993,19.983zm-11.912 -12.003c4.201,-1.963 7.821,-7.316 10.628,-11.011 4.286,-5.643 5.296,-5.573 5.871,-8.897 0.33,-1.912 0.932,-3.019 -0.146,-4.862 -5.092,-8.706 -15.809,19.96 -16.353,24.77zm-21.386 10.706c-3.555,-1.615 -1.696,-2.442 -6.9,-1.553 -5.233,0.894 -2.213,1.461 -7.37,-0.426 -1.698,-5.226 -0.329,-8.937 -2.533,-14.188 -1.581,-3.769 -4.055,-7.547 -8.946,-7.469 -4.872,9.08 1.534,12.837 3.991,19.882 2.153,6.175 -0.428,7.104 -0.511,12.357 -0.068,4.268 2.385,7.833 3.667,11.277 2.933,7.874 2.507,13.438 10.886,16.96 7.856,3.302 15.146,5.779 21.795,-0.476 -0.782,-3.754 -3.973,-6.178 -5.181,-8.976 3.245,0.86 3.969,3.949 9.812,4.901 4.539,-1.44 16.683,-11.878 18.07,-15.008 2.071,-4.67 -0.804,-9.073 -3.206,-11.518 -5.141,-5.237 -6.809,-2.474 -12.086,-4.892 -5.855,-7.47 2.201,-9.541 -11.952,-13.662 -0.484,-6.515 0.476,-17.02 -0.751,-22.503 -0.689,-3.078 -0.784,-4.101 -3.042,-5.111 -7.254,4.919 -0.411,25.264 -5.398,31.561 -2.686,3.395 -2.413,-0.642 -2.073,4.27 0.13,1.87 1.058,1.956 1.728,4.574z"/>
    <path class="fil18" d="M790.427 366.25c-0.944,-5.516 -3.164,-12.849 -8.475,-14.075 -0.807,4.547 1.256,7.219 5.025,11.495 1.767,2.003 1.801,1.666 3.45,2.58z"/>
    <path class="fil19" d="M261.216 570.633c5.38,-0.137 11.721,-6.576 12.87,-10.036 -2.996,0.233 -12.398,3.927 -12.87,10.036z"/>
    <path class="fil20" d="M253.254 559.376c4.248,0.836 4.814,-0.009 8.133,-1.645 3.868,-1.907 4.774,-1.881 6.567,-4.742 -5.123,0.197 -14.122,1.225 -14.7,6.387z"/>
    <path class="fil20" d="M783.705 373.332c-0.596,-3.081 -2.188,-4.715 -4.196,-6.812 -2.777,-2.901 -2.748,-3.823 -7.486,-4.495 1.076,5.132 6.176,9.504 11.682,11.307z"/>
    <path class="fil13" d="M452.911 266.042c-0.814,-5.702 -3.934,-12.394 -8.434,-13.956 -1.199,3.799 0.492,4.972 2.517,7.908 1.689,2.448 3.075,4.562 5.917,6.048z"/>
    <path class="fil13" d="M446.58 273.312c-1.175,-3.27 -2.327,-4.469 -4.376,-6.621 -2.483,-2.606 -3.131,-4.418 -7.724,-4.541 0.744,3.981 6.857,10.062 12.1,11.162z"/>
    <path class="fil3" d="M745.26 456.386c-2.279,-6.016 -0.174,-17.084 -9.636,-16.279 -1.453,4.938 -0.311,7.956 1.95,11.931 3.673,6.452 2.303,5.26 1.546,12.309 -0.377,3.522 5.004,19.704 8.989,22.498 7.656,5.366 15.874,5.22 22.184,-0.88 3.098,-2.996 4.522,-4.787 8.371,-7.368 2.401,-1.61 8.265,-3.238 9.355,-6.055 -2.106,-6.489 -5.75,0.913 -7.094,-6.543 -1.804,-10.002 -1.345,-3.644 -8.541,-6.172 -1.653,-13.212 -1.07,-6.156 -8.114,-12.293 0.132,-6.247 1.043,-15.862 -1.85,-21.072 -6.279,2.161 -3.149,15.727 -3.859,21.979 -0.393,3.456 -3.562,5.344 -5.593,7.283 -3.282,3.138 -4.214,3.714 -7.708,0.662zm38.051 3.446c6.643,-1.605 16.995,-10.931 17.699,-15.774 -6.963,-2.038 -15.843,10.085 -17.699,15.774zm-9.059 -10.232c1.922,-0.989 0.487,0.095 2.521,-1.594 1.625,-1.349 13.326,-14.445 9.739,-18.059 -4.133,-4.164 -11.64,15.203 -12.26,19.653zm16.094 21.014c3.359,0.475 4.56,0.491 7.583,-0.493 3.439,-1.119 3.648,-1.151 4.241,-3.853 -4.416,-0.66 -10.986,-0.391 -11.824,4.346z"/>
    <path class="fil3" d="M762.719 259.144c-1.88,-4.966 -0.143,-14.101 -7.952,-13.436 -1.199,4.076 -0.257,6.566 1.61,9.847 3.03,5.325 1.9,4.34 1.275,10.159 -0.311,2.906 4.13,16.261 7.42,18.568 6.318,4.428 13.101,4.308 18.308,-0.726 2.557,-2.473 3.732,-3.951 6.909,-6.081 1.982,-1.329 6.821,-2.673 7.721,-4.998 -1.738,-5.355 -4.745,0.754 -5.855,-5.4 -1.489,-8.255 -1.11,-3.007 -7.049,-5.094 -1.364,-10.904 -0.883,-5.08 -6.696,-10.146 0.108,-5.156 0.86,-13.091 -1.528,-17.391 -5.182,1.783 -2.599,12.98 -3.185,18.14 -0.324,2.852 -2.939,4.411 -4.615,6.011 -2.71,2.59 -3.479,3.065 -6.363,0.547zm31.405 2.843c5.483,-1.325 14.027,-9.021 14.608,-13.019 -5.747,-1.681 -13.076,8.324 -14.608,13.019zm-7.477 -8.445c1.587,-0.816 0.403,0.079 2.082,-1.316 1.34,-1.113 10.997,-11.921 8.037,-14.903 -3.411,-3.438 -9.606,12.547 -10.119,16.219zm13.284 17.344c2.771,0.392 3.763,0.405 6.257,-0.407 2.839,-0.923 3.011,-0.95 3.501,-3.179 -3.644,-0.546 -9.067,-0.324 -9.758,3.586z"/>
    <path class="fil2" d="M561.799 322.817c0.03,0.017 0.258,2.608 6.303,-0.621 3.022,-1.615 3.068,-2.345 3.715,-3.756 -3.267,-0.623 -8.712,0.909 -10.018,4.377zm-7.572 -7.716c3.914,-0.893 6.062,-4.032 8.068,-6.641 1.946,-2.531 5.075,-5.512 4.469,-9.679 -6.393,1.218 -11.06,10.639 -12.537,16.32zm-9.393 -6.591c3.091,-2.27 4.235,-5.672 5.817,-8.891 1.549,-3.153 4.297,-6.449 2.071,-10.285 -5.824,0.548 -8,14.164 -7.888,19.176zm-24.166 9.666c-1.818,-6.68 -3.042,-13.744 -10.114,-12.61 -1.337,10.792 6.666,7.513 6.572,19.991 -0.033,4.15 7.941,16.639 10.708,18.119 1.361,0.727 8.615,2.147 10.466,2.111 8.292,-0.159 7.815,-8.828 18.844,-16.564 3.454,-2.422 2.98,-1 2.897,-4.95 -4.185,-1.099 -4.954,0.938 -6.585,-2.52 -2.287,-4.852 1.082,-4.762 -5.644,-4.672 -5.426,0.073 -1.929,-0.877 -4.384,-5.515 -1.416,-2.673 -3.629,-2.316 -6.848,-3.12 -1.719,-5.749 -1.301,-15.245 -5.839,-18.424 -3.871,5.401 0.756,13.38 0.682,19.988 -0.023,2.052 -2.681,5.273 -3.871,6.866 -2.502,3.347 -3.093,3.107 -6.884,1.3z"/>
    <path class="fil21" d="M221.348 294.707c-1.663,-3.349 -7.469,-4.236 -11.674,-3.506 0.729,4.195 8.133,5.732 11.674,3.506z"/>
    <path class="fil22" d="M407.855 399.37c2.866,1.947 8.731,1.351 10.209,-2.779 -3.405,-1.718 -8.666,-1.061 -10.209,2.779z"/>
    <path class="fil3" d="M200.142 372.51c0,0 0,0 0,0z"/>
   </g>
   <g>
    <g>
     <path class="fil23 str0" d="M246.903 905.656c-11.605,-5.752 -25.431,-48.944 -33.605,-62.165 -6.459,-10.394 -13.119,-12.413 -17.459,-12.413 -2.624,0 -4.339,0.707 -4.743,0.808 0.404,0.706 0.505,1.816 0.505,3.128 0,15.844 -23.615,69.936 -29.166,70.542l21.395 0c-0.908,0 -1.211,-1.413 -1.211,-3.331 0,-4.743 1.816,-12.917 2.523,-15.137l27.954 0c0.706,3.128 1.715,6.559 1.715,9.789 0,3.532 -1.11,6.66 -4.844,8.679l36.936 0.1zm-36.431 -28.357l-21.697 0c3.835,-10.294 8.477,-21.899 11.303,-28.661 3.532,9.385 7.265,19.073 10.394,28.661z"/>
    </g>
    <g>
     <path id="1" class="fil23 str0" d="M294.435 905.757l14.028 -0.101c-3.129,-2.119 -4.743,-5.449 -5.349,-8.88 0,-9.587 0.303,-19.074 0.303,-28.661l-22 0c5.55,0 4.844,4.743 5.046,5.147l0.101 16.147c-1.413,0.101 -2.725,0.201 -4.037,0.201 -16.55,0 -24.926,-10.596 -24.926,-21.697 0,-10.899 8.073,-22.101 24.22,-24.119 1.413,-0.202 2.825,-0.303 4.238,-0.303 5.349,0 11.202,1.211 16.954,3.936l-2.724 -11.908c-2.119,-1.514 -10.496,-3.835 -20.083,-3.835 -16.954,0 -38.248,7.064 -38.349,37.642 0,13.018 6.459,23.817 12.817,28.257 10.495,7.266 25.633,8.174 39.761,8.174z"/>
    </g>
    <g>
     <path id="2" class="fil23 str0" d="M337.426 905.656c3.936,0 8.074,-0.504 12.413,-1.614 4.643,-1.211 8.376,-1.514 11.505,-1.514 5.853,0 8.881,1.413 8.881,1.413l0 -71.853 -25.532 0c3.532,0.504 6.458,2.119 8.578,5.247l0 50.56c-3.129,1.11 -6.56,1.816 -9.689,1.816 -7.568,0 -14.128,-3.633 -14.532,-13.22l0 -44.403 -25.633 0c3.532,0.504 6.56,2.119 8.679,5.247l0 44.505c0.202,4.44 1.413,10.193 6.257,16.449 3.633,4.845 10.697,7.367 19.073,7.367z"/>
    </g>
    <g>
     <path id="3" class="fil23 str0" d="M449.647 905.656c-11.606,-5.752 -25.431,-48.944 -33.606,-62.165 -6.459,-10.394 -13.119,-12.413 -17.458,-12.413 -2.624,0 -4.34,0.707 -4.743,0.808 0.403,0.706 0.504,1.816 0.504,3.128 0,15.844 -23.615,69.936 -29.165,70.542l21.394 0c-0.908,0 -1.21,-1.413 -1.21,-3.331 0,-4.743 1.816,-12.917 2.522,-15.137l27.954 0c0.707,3.128 1.716,6.559 1.716,9.789 0,3.532 -1.11,6.66 -4.844,8.679l36.936 0.1zm-36.431 -28.357l-21.698 0c3.835,-10.294 8.477,-21.899 11.303,-28.661 3.532,9.385 7.266,19.073 10.395,28.661z"/>
    </g>
    <g>
     <path id="4" class="fil23 str0" d="M545.418 909.087c-3.128,-1.614 -11.706,-10.091 -11.706,-19.779l0 -0.303c0.201,-9.587 14.935,-27.853 17.458,-32.394l0 49.045 21.092 0c-3.431,-0.605 -6.459,-2.119 -8.578,-5.147l0 -63.577c2.119,-3.028 5.147,-4.542 8.578,-5.147l-12.413 0c-1.514,0 -7.669,0.807 -17.862,13.321 -6.459,7.972 -12.918,18.871 -17.963,28.56 -5.147,-9.689 -11.606,-20.588 -18.065,-28.56 -10.192,-12.514 -16.248,-13.321 -17.761,-13.321l-12.514 0c3.532,0.605 6.459,2.119 8.578,5.147l0 63.577c-2.119,3.028 -5.046,4.542 -8.578,5.047l21.193 0 0 -48.945c6.862,13.724 15.944,31.788 26.945,42.889 7.871,7.973 21.596,9.587 21.596,9.587z"/>
    </g>
    <g>
     <path id="5" class="fil23 str0" d="M651.684 905.656c-11.606,-5.752 -25.431,-48.944 -33.605,-62.165 -6.459,-10.394 -13.12,-12.413 -17.459,-12.413 -2.624,0 -4.339,0.707 -4.743,0.808 0.404,0.706 0.504,1.816 0.504,3.128 0,15.844 -23.614,69.936 -29.165,70.542l21.395 0c-0.908,0 -1.211,-1.413 -1.211,-3.331 0,-4.743 1.816,-12.917 2.523,-15.137l27.954 0c0.706,3.128 1.715,6.559 1.715,9.789 0,3.532 -1.11,6.66 -4.844,8.679l36.936 0.1zm-36.431 -28.357l-21.697 0c3.835,-10.294 8.477,-21.899 11.303,-28.661 3.532,9.385 7.265,19.073 10.394,28.661z"/>
    </g>
    <g>
     <path id="6" class="fil23 str0" d="M714.354 906.666l2.523 -0.202 4.844 -0.505c-8.376,-5.248 -22.505,-18.972 -26.238,-28.358 9.587,-2.825 16.954,-12.513 16.954,-23.11 0,-12.514 -9.991,-22.807 -22.202,-22.807l-43.597 0c3.533,0.605 6.459,2.119 8.578,5.349l0 68.422 25.23 0c-3.33,-0.505 -6.257,-1.918 -8.276,-4.946l0 -23.21 5.652 0c6.156,9.789 20.083,29.367 36.532,29.367zm-35.22 -36.432l-6.964 0 0 -30.88 6.964 0c8.679,0 15.642,7.165 15.642,16.046 0,8.779 -7.064,14.834 -15.642,14.834z"/>
    </g>
    <g>
     <path id="7" class="fil23 str0" d="M750.886 905.656c-3.532,-0.504 -6.559,-2.119 -8.679,-5.247l0 -63.376c2.12,-3.129 5.147,-4.744 8.679,-5.248l-34.211 0c3.532,0.504 6.56,2.119 8.679,5.248l0 63.376c-2.119,3.128 -5.147,4.743 -8.679,5.247l34.211 0z"/>
    </g>
    <g>
     <path id="8" class="fil23 str0" d="M828.694 913.932l3.532 -0.202c-7.367,-3.936 -10.395,-7.266 -10.395,-12.918 0,-3.532 1.211,-7.972 3.331,-14.128l27.954 0c0.706,3.027 1.614,6.459 1.614,9.688 0,3.532 -1.11,6.762 -4.743,8.78l36.936 0.101c-11.706,-5.854 -25.532,-49.046 -33.706,-62.266 -6.358,-10.294 -13.119,-12.312 -17.459,-12.312 -2.624,0 -4.339,0.706 -4.743,0.807 0.404,0.706 0.605,1.817 0.605,3.229 0,11.606 -12.715,43.597 -21.697,60.248l0 -59.339c2.119,-2.927 5.046,-4.441 8.477,-4.945l-29.468 0c3.432,0.504 6.358,2.018 8.477,5.045l0 44.606c-8.578,-11.404 -24.523,-49.651 -42.486,-49.651l-9.083 0c3.432,0.504 6.358,2.018 8.477,5.045l0 63.78c-2.119,3.028 -5.045,4.542 -8.477,5.046l21.092 0 0 -47.834c11.202,22.201 32.697,57.22 61.762,57.22zm21.697 -37.138l-21.697 0c3.835,-10.293 8.578,-21.899 11.303,-28.66 3.532,9.486 7.367,19.073 10.394,28.66z"/>
    </g>
    <path id="9" class="fil24" d="M246.903 905.656c-11.605,-5.752 -25.431,-48.944 -33.605,-62.165 -6.459,-10.394 -13.119,-12.413 -17.459,-12.413 -2.624,0 -4.339,0.707 -4.743,0.808 0.404,0.706 0.505,1.816 0.505,3.128 0,15.844 -23.615,69.936 -29.166,70.542l21.395 0c-0.908,0 -1.211,-1.413 -1.211,-3.331 0,-4.743 1.816,-12.917 2.523,-15.137l27.954 0c0.706,3.128 1.715,6.559 1.715,9.789 0,3.532 -1.11,6.66 -4.844,8.679l36.936 0.1zm-36.431 -28.357l-21.697 0c3.835,-10.294 8.477,-21.899 11.303,-28.661 3.532,9.385 7.265,19.073 10.394,28.661z"/>
    <path id="10" class="fil24" d="M294.435 905.757l14.028 -0.101c-3.129,-2.119 -4.743,-5.449 -5.349,-8.88 0,-9.587 0.303,-19.074 0.303,-28.661l-22 0c5.55,0 4.844,4.743 5.046,5.147l0.101 16.147c-1.413,0.101 -2.725,0.201 -4.037,0.201 -16.55,0 -24.926,-10.596 -24.926,-21.697 0,-10.899 8.073,-22.101 24.22,-24.119 1.413,-0.202 2.825,-0.303 4.238,-0.303 5.349,0 11.202,1.211 16.954,3.936l-2.724 -11.908c-2.119,-1.514 -10.496,-3.835 -20.083,-3.835 -16.954,0 -38.248,7.064 -38.349,37.642 0,13.018 6.459,23.817 12.817,28.257 10.495,7.266 25.633,8.174 39.761,8.174z"/>
    <path id="11" class="fil24" d="M337.426 905.656c3.936,0 8.074,-0.504 12.413,-1.614 4.643,-1.211 8.376,-1.514 11.505,-1.514 5.853,0 8.881,1.413 8.881,1.413l0 -71.853 -25.532 0c3.532,0.504 6.458,2.119 8.578,5.247l0 50.56c-3.129,1.11 -6.56,1.816 -9.689,1.816 -7.568,0 -14.128,-3.633 -14.532,-13.22l0 -44.403 -25.633 0c3.532,0.504 6.56,2.119 8.679,5.247l0 44.505c0.202,4.44 1.413,10.193 6.257,16.449 3.633,4.845 10.697,7.367 19.073,7.367z"/>
    <path id="12" class="fil24" d="M449.647 905.656c-11.606,-5.752 -25.431,-48.944 -33.606,-62.165 -6.459,-10.394 -13.119,-12.413 -17.458,-12.413 -2.624,0 -4.34,0.707 -4.743,0.808 0.403,0.706 0.504,1.816 0.504,3.128 0,15.844 -23.615,69.936 -29.165,70.542l21.394 0c-0.908,0 -1.21,-1.413 -1.21,-3.331 0,-4.743 1.816,-12.917 2.522,-15.137l27.954 0c0.707,3.128 1.716,6.559 1.716,9.789 0,3.532 -1.11,6.66 -4.844,8.679l36.936 0.1zm-36.431 -28.357l-21.698 0c3.835,-10.294 8.477,-21.899 11.303,-28.661 3.532,9.385 7.266,19.073 10.395,28.661z"/>
    <path id="13" class="fil24" d="M545.418 909.087c-3.128,-1.614 -11.706,-10.091 -11.706,-19.779l0 -0.303c0.201,-9.587 14.935,-27.853 17.458,-32.394l0 49.045 21.092 0c-3.431,-0.605 -6.459,-2.119 -8.578,-5.147l0 -63.577c2.119,-3.028 5.147,-4.542 8.578,-5.147l-12.413 0c-1.514,0 -7.669,0.807 -17.862,13.321 -6.459,7.972 -12.918,18.871 -17.963,28.56 -5.147,-9.689 -11.606,-20.588 -18.065,-28.56 -10.192,-12.514 -16.248,-13.321 -17.761,-13.321l-12.514 0c3.532,0.605 6.459,2.119 8.578,5.147l0 63.577c-2.119,3.028 -5.046,4.542 -8.578,5.047l21.193 0 0 -48.945c6.862,13.724 15.944,31.788 26.945,42.889 7.871,7.973 21.596,9.587 21.596,9.587z"/>
    <path id="14" class="fil24" d="M651.684 905.656c-11.606,-5.752 -25.431,-48.944 -33.605,-62.165 -6.459,-10.394 -13.12,-12.413 -17.459,-12.413 -2.624,0 -4.339,0.707 -4.743,0.808 0.404,0.706 0.504,1.816 0.504,3.128 0,15.844 -23.614,69.936 -29.165,70.542l21.395 0c-0.908,0 -1.211,-1.413 -1.211,-3.331 0,-4.743 1.816,-12.917 2.523,-15.137l27.954 0c0.706,3.128 1.715,6.559 1.715,9.789 0,3.532 -1.11,6.66 -4.844,8.679l36.936 0.1zm-36.431 -28.357l-21.697 0c3.835,-10.294 8.477,-21.899 11.303,-28.661 3.532,9.385 7.265,19.073 10.394,28.661z"/>
    <path id="15" class="fil24" d="M714.354 906.666l2.523 -0.202 4.844 -0.505c-8.376,-5.248 -22.505,-18.972 -26.238,-28.358 9.587,-2.825 16.954,-12.513 16.954,-23.11 0,-12.514 -9.991,-22.807 -22.202,-22.807l-43.597 0c3.533,0.605 6.459,2.119 8.578,5.349l0 68.422 25.23 0c-3.33,-0.505 -6.257,-1.918 -8.276,-4.946l0 -23.21 5.652 0c6.156,9.789 20.083,29.367 36.532,29.367zm-35.22 -36.432l-6.964 0 0 -30.88 6.964 0c8.679,0 15.642,7.165 15.642,16.046 0,8.779 -7.064,14.834 -15.642,14.834z"/>
    <path id="16" class="fil24" d="M750.886 905.656c-3.532,-0.504 -6.559,-2.119 -8.679,-5.247l0 -63.376c2.12,-3.129 5.147,-4.744 8.679,-5.248l-34.211 0c3.532,0.504 6.56,2.119 8.679,5.248l0 63.376c-2.119,3.128 -5.147,4.743 -8.679,5.247l34.211 0z"/>
    <path id="17" class="fil24" d="M828.694 913.932l3.532 -0.202c-7.367,-3.936 -10.395,-7.266 -10.395,-12.918 0,-3.532 1.211,-7.972 3.331,-14.128l27.954 0c0.706,3.027 1.614,6.459 1.614,9.688 0,3.532 -1.11,6.762 -4.743,8.78l36.936 0.101c-11.706,-5.854 -25.532,-49.046 -33.706,-62.266 -6.358,-10.294 -13.119,-12.312 -17.459,-12.312 -2.624,0 -4.339,0.706 -4.743,0.807 0.404,0.706 0.605,1.817 0.605,3.229 0,11.606 -12.715,43.597 -21.697,60.248l0 -59.339c2.119,-2.927 5.046,-4.441 8.477,-4.945l-29.468 0c3.432,0.504 6.358,2.018 8.477,5.045l0 44.606c-8.578,-11.404 -24.523,-49.651 -42.486,-49.651l-9.083 0c3.432,0.504 6.358,2.018 8.477,5.045l0 63.78c-2.119,3.028 -5.045,4.542 -8.477,5.046l21.092 0 0 -47.834c11.202,22.201 32.697,57.22 61.762,57.22zm21.697 -37.138l-21.697 0c3.835,-10.293 8.578,-21.899 11.303,-28.66 3.532,9.486 7.367,19.073 10.394,28.66z"/>
    <g>
     <path class="fil23 str0" d="M246.161 775.663c5.994,0 10.62,1.292 13.878,3.877 3.258,2.584 4.887,6.374 4.887,11.37 0,5.125 -1.531,9.046 -4.593,11.761 -3.063,2.715 -7.265,4.072 -12.608,4.072l-3.128 0 0 14.27 -13.162 0 0 -45.35 14.726 0zm0.195 21.893c1.825,0 3.139,-0.532 3.942,-1.597 0.804,-1.064 1.206,-2.769 1.206,-5.114 0,-2.042 -0.391,-3.563 -1.173,-4.562 -0.782,-0.999 -2.129,-1.498 -4.04,-1.498l-1.694 0 0 12.771 1.759 0z"/>
    </g>
    <g>
     <path id="1" class="fil23 str0" d="M356.028 821.013l-1.499 -8.927 -9.122 0 -1.499 8.927 -13.357 0 11.728 -45.35 15.638 0 11.664 45.35 -13.553 0zm-9.123 -18.049l6.06 0 -3.062 -18.114 -2.998 18.114z"/>
    </g>
    <g>
     <path id="2" class="fil23 str0" d="M455.599 804.788l-1.759 0 0 16.225 -13.162 0 0 -45.35 15.117 0c6.255,0 10.892,1.194 13.911,3.583 3.019,2.389 4.528,5.995 4.528,10.817 0,5.56 -2.345,9.621 -7.036,12.184l9.903 18.766 -14.139 0 -7.363 -16.225zm-1.759 -8.861l2.215 0c1.695,0 2.932,-0.467 3.714,-1.401 0.782,-0.934 1.173,-2.422 1.173,-4.463 0,-1.868 -0.445,-3.236 -1.336,-4.105 -0.89,-0.869 -2.204,-1.304 -3.942,-1.304l-1.824 0 0 11.273z"/>
    </g>
    <g>
     <path id="3" class="fil23 str0" d="M574.914 817.95c3.041,0 5.549,0.326 7.526,0.978 1.976,0.651 3.877,1.737 5.701,3.258l-7.688 9.969c-4.431,-6.733 -9.731,-10.1 -15.899,-10.1 -5.821,0 -10.338,-2.063 -13.553,-6.19 -3.214,-4.126 -4.822,-9.991 -4.822,-17.592 0,-7.602 1.673,-13.488 5.017,-17.658 3.345,-4.17 8.145,-6.256 14.4,-6.256 6.299,0 11.099,2.053 14.4,6.158 3.302,4.105 4.952,10.023 4.952,17.756 0,5.082 -0.934,9.165 -2.801,12.249 -1.868,3.084 -4.279,5.56 -7.233,7.428zm-15.051 -19.677c0,3.692 0.184,6.602 0.553,8.731 0.37,2.128 0.967,3.659 1.792,4.593 0.826,0.935 1.955,1.401 3.388,1.401 1.477,0 2.628,-0.466 3.454,-1.401 0.825,-0.934 1.411,-2.454 1.759,-4.561 0.348,-2.107 0.521,-5.028 0.521,-8.763 0,-3.693 -0.184,-6.592 -0.554,-8.699 -0.369,-2.107 -0.966,-3.616 -1.792,-4.529 -0.825,-0.912 -1.954,-1.368 -3.388,-1.368 -1.433,0 -2.562,0.456 -3.388,1.368 -0.825,0.913 -1.422,2.422 -1.792,4.529 -0.369,2.107 -0.553,5.006 -0.553,8.699z"/>
    </g>
    <g>
     <path id="4" class="fil23 str0" d="M692.991 806.548c0,2.997 -0.641,5.679 -1.922,8.047 -1.282,2.367 -3.226,4.235 -5.832,5.603 -2.606,1.368 -5.821,2.053 -9.643,2.053 -5.778,0 -10.133,-1.401 -13.065,-4.203 -2.932,-2.802 -4.398,-6.635 -4.398,-11.5l0 -30.885 13.162 0 0 30.494c0,2.346 0.326,4.05 0.978,5.115 0.651,1.064 1.759,1.596 3.323,1.596 1.52,0 2.606,-0.532 3.258,-1.596 0.651,-1.065 0.977,-2.769 0.977,-5.115l0 -30.494 13.162 0 0 30.885z"/>
    </g>
    <g>
     <polygon id="5" class="fil23 str0" points="794.778,775.663 793.475,784.785 780.313,784.785 780.313,793.581 791.911,793.581 791.911,802.443 780.313,802.443 780.313,811.76 794.387,811.76 794.387,821.013 767.151,821.013 767.151,775.663 "/>
    </g>
    <path id="6" class="fil24" d="M246.161 775.663c5.994,0 10.62,1.292 13.878,3.877 3.258,2.584 4.887,6.374 4.887,11.37 0,5.125 -1.531,9.046 -4.593,11.761 -3.063,2.715 -7.265,4.072 -12.608,4.072l-3.128 0 0 14.27 -13.162 0 0 -45.35 14.726 0zm0.195 21.893c1.825,0 3.139,-0.532 3.942,-1.597 0.804,-1.064 1.206,-2.769 1.206,-5.114 0,-2.042 -0.391,-3.563 -1.173,-4.562 -0.782,-0.999 -2.129,-1.498 -4.04,-1.498l-1.694 0 0 12.771 1.759 0z"/>
    <path id="7" class="fil24" d="M356.028 821.013l-1.499 -8.927 -9.122 0 -1.499 8.927 -13.357 0 11.728 -45.35 15.638 0 11.664 45.35 -13.553 0zm-9.123 -18.049l6.06 0 -3.062 -18.114 -2.998 18.114z"/>
    <path id="8" class="fil24" d="M455.599 804.788l-1.759 0 0 16.225 -13.162 0 0 -45.35 15.117 0c6.255,0 10.892,1.194 13.911,3.583 3.019,2.389 4.528,5.995 4.528,10.817 0,5.56 -2.345,9.621 -7.036,12.184l9.903 18.766 -14.139 0 -7.363 -16.225zm-1.759 -8.861l2.215 0c1.695,0 2.932,-0.467 3.714,-1.401 0.782,-0.934 1.173,-2.422 1.173,-4.463 0,-1.868 -0.445,-3.236 -1.336,-4.105 -0.89,-0.869 -2.204,-1.304 -3.942,-1.304l-1.824 0 0 11.273z"/>
    <path id="9" class="fil24" d="M574.914 817.95c3.041,0 5.549,0.326 7.526,0.978 1.976,0.651 3.877,1.737 5.701,3.258l-7.688 9.969c-4.431,-6.733 -9.731,-10.1 -15.899,-10.1 -5.821,0 -10.338,-2.063 -13.553,-6.19 -3.214,-4.126 -4.822,-9.991 -4.822,-17.592 0,-7.602 1.673,-13.488 5.017,-17.658 3.345,-4.17 8.145,-6.256 14.4,-6.256 6.299,0 11.099,2.053 14.4,6.158 3.302,4.105 4.952,10.023 4.952,17.756 0,5.082 -0.934,9.165 -2.801,12.249 -1.868,3.084 -4.279,5.56 -7.233,7.428zm-15.051 -19.677c0,3.692 0.184,6.602 0.553,8.731 0.37,2.128 0.967,3.659 1.792,4.593 0.826,0.935 1.955,1.401 3.388,1.401 1.477,0 2.628,-0.466 3.454,-1.401 0.825,-0.934 1.411,-2.454 1.759,-4.561 0.348,-2.107 0.521,-5.028 0.521,-8.763 0,-3.693 -0.184,-6.592 -0.554,-8.699 -0.369,-2.107 -0.966,-3.616 -1.792,-4.529 -0.825,-0.912 -1.954,-1.368 -3.388,-1.368 -1.433,0 -2.562,0.456 -3.388,1.368 -0.825,0.913 -1.422,2.422 -1.792,4.529 -0.369,2.107 -0.553,5.006 -0.553,8.699z"/>
    <path id="10" class="fil24" d="M692.991 806.548c0,2.997 -0.641,5.679 -1.922,8.047 -1.282,2.367 -3.226,4.235 -5.832,5.603 -2.606,1.368 -5.821,2.053 -9.643,2.053 -5.778,0 -10.133,-1.401 -13.065,-4.203 -2.932,-2.802 -4.398,-6.635 -4.398,-11.5l0 -30.885 13.162 0 0 30.494c0,2.346 0.326,4.05 0.978,5.115 0.651,1.064 1.759,1.596 3.323,1.596 1.52,0 2.606,-0.532 3.258,-1.596 0.651,-1.065 0.977,-2.769 0.977,-5.115l0 -30.494 13.162 0 0 30.885z"/>
    <polygon id="11" class="fil24" points="794.778,775.663 793.475,784.785 780.313,784.785 780.313,793.581 791.911,793.581 791.911,802.443 780.313,802.443 780.313,811.76 794.387,811.76 794.387,821.013 767.151,821.013 767.151,775.663 "/>
   </g>
  </g>
 </g>
</svg>
